<mxfile host="app.diagrams.net" modified="2021-10-25T08:19:30.862Z" agent="5.0 (Macintosh; Intel Mac OS X 10_14_5) AppleWebKit/537.36 (KHTML, like Gecko) Chrome/94.0.4606.81 Safari/537.36" etag="Mav7q0NOZEzF4mLwtWAO" version="15.5.0" type="github">
  <diagram id="prtHgNgQTEPvFCAcTncT" name="Page-1">
    <mxGraphModel dx="1426" dy="826" grid="1" gridSize="10" guides="1" tooltips="1" connect="1" arrows="1" fold="1" page="1" pageScale="1" pageWidth="827" pageHeight="1169" math="0" shadow="0">
      <root>
        <mxCell id="0" />
        <mxCell id="1" parent="0" />
        <mxCell id="dNxyNK7c78bLwvsdeMH5-19" value="&lt;span style=&quot;font-family: &amp;#34;arial&amp;#34; , sans-serif ; font-weight: 400&quot;&gt;&lt;font style=&quot;font-size: 14px&quot;&gt;CDSS-AI模型线上问题反馈SOP流程&lt;/font&gt;&lt;/span&gt;" style="swimlane;html=1;childLayout=stackLayout;resizeParent=1;resizeParentMax=0;horizontal=0;startSize=20;horizontalStack=0;" parent="1" vertex="1">
          <mxGeometry x="200" y="90" width="820" height="880" as="geometry">
            <mxRectangle x="200" y="90" width="1070" height="400" as="alternateBounds" />
          </mxGeometry>
        </mxCell>
        <mxCell id="dNxyNK7c78bLwvsdeMH5-20" value="交付" style="swimlane;html=1;startSize=20;horizontal=0;" parent="dNxyNK7c78bLwvsdeMH5-19" vertex="1">
          <mxGeometry x="20" width="800" height="430" as="geometry">
            <mxRectangle x="20" width="620" height="20" as="alternateBounds" />
          </mxGeometry>
        </mxCell>
        <mxCell id="ynxtPpoTQ_Jm71Z0IVjG-52" style="edgeStyle=orthogonalEdgeStyle;rounded=0;orthogonalLoop=1;jettySize=auto;html=1;fontSize=14;" edge="1" parent="dNxyNK7c78bLwvsdeMH5-20" source="ynxtPpoTQ_Jm71Z0IVjG-40" target="ynxtPpoTQ_Jm71Z0IVjG-48">
          <mxGeometry relative="1" as="geometry" />
        </mxCell>
        <mxCell id="ynxtPpoTQ_Jm71Z0IVjG-40" value="系统问题" style="rounded=0;whiteSpace=wrap;html=1;fontFamily=Helvetica;fontSize=12;fontColor=#000000;align=center;" vertex="1" parent="dNxyNK7c78bLwvsdeMH5-20">
          <mxGeometry x="50" y="30" width="70" height="30" as="geometry" />
        </mxCell>
        <mxCell id="ynxtPpoTQ_Jm71Z0IVjG-75" style="edgeStyle=orthogonalEdgeStyle;rounded=0;orthogonalLoop=1;jettySize=auto;html=1;entryX=0;entryY=0.5;entryDx=0;entryDy=0;fontSize=14;" edge="1" parent="dNxyNK7c78bLwvsdeMH5-20" target="ynxtPpoTQ_Jm71Z0IVjG-74">
          <mxGeometry relative="1" as="geometry">
            <mxPoint x="120" y="135" as="sourcePoint" />
          </mxGeometry>
        </mxCell>
        <mxCell id="ynxtPpoTQ_Jm71Z0IVjG-53" value="是" style="edgeStyle=orthogonalEdgeStyle;rounded=0;orthogonalLoop=1;jettySize=auto;html=1;entryX=0;entryY=0.5;entryDx=0;entryDy=0;fontSize=14;" edge="1" parent="dNxyNK7c78bLwvsdeMH5-20" source="ynxtPpoTQ_Jm71Z0IVjG-48" target="ynxtPpoTQ_Jm71Z0IVjG-50">
          <mxGeometry relative="1" as="geometry" />
        </mxCell>
        <mxCell id="ynxtPpoTQ_Jm71Z0IVjG-87" value="否" style="edgeStyle=orthogonalEdgeStyle;rounded=0;orthogonalLoop=1;jettySize=auto;html=1;entryX=0.5;entryY=0;entryDx=0;entryDy=0;fontSize=14;" edge="1" parent="dNxyNK7c78bLwvsdeMH5-20" source="ynxtPpoTQ_Jm71Z0IVjG-48" target="ynxtPpoTQ_Jm71Z0IVjG-56">
          <mxGeometry relative="1" as="geometry" />
        </mxCell>
        <mxCell id="ynxtPpoTQ_Jm71Z0IVjG-48" value="是否运行正常" style="rhombus;whiteSpace=wrap;html=1;fontFamily=Helvetica;fontSize=12;fontColor=#000000;align=center;" vertex="1" parent="dNxyNK7c78bLwvsdeMH5-20">
          <mxGeometry x="50" y="130" width="70" height="65" as="geometry" />
        </mxCell>
        <mxCell id="ynxtPpoTQ_Jm71Z0IVjG-50" value="结束" style="ellipse;whiteSpace=wrap;html=1;" vertex="1" parent="dNxyNK7c78bLwvsdeMH5-20">
          <mxGeometry x="174" y="142.5" width="40" height="40" as="geometry" />
        </mxCell>
        <mxCell id="ynxtPpoTQ_Jm71Z0IVjG-67" style="edgeStyle=orthogonalEdgeStyle;rounded=0;orthogonalLoop=1;jettySize=auto;html=1;entryX=0;entryY=0.5;entryDx=0;entryDy=0;fontSize=14;" edge="1" parent="dNxyNK7c78bLwvsdeMH5-20" source="ynxtPpoTQ_Jm71Z0IVjG-56" target="ynxtPpoTQ_Jm71Z0IVjG-66">
          <mxGeometry relative="1" as="geometry" />
        </mxCell>
        <mxCell id="ynxtPpoTQ_Jm71Z0IVjG-91" value="否" style="edgeLabel;html=1;align=center;verticalAlign=middle;resizable=0;points=[];fontSize=14;" vertex="1" connectable="0" parent="ynxtPpoTQ_Jm71Z0IVjG-67">
          <mxGeometry x="0.2" y="-2" relative="1" as="geometry">
            <mxPoint y="1" as="offset" />
          </mxGeometry>
        </mxCell>
        <mxCell id="ynxtPpoTQ_Jm71Z0IVjG-56" value="是否需要AI介入" style="rhombus;whiteSpace=wrap;html=1;fontFamily=Helvetica;fontSize=12;fontColor=#000000;align=center;" vertex="1" parent="dNxyNK7c78bLwvsdeMH5-20">
          <mxGeometry x="25" y="257.5" width="120" height="50" as="geometry" />
        </mxCell>
        <mxCell id="ynxtPpoTQ_Jm71Z0IVjG-61" value="结束" style="ellipse;whiteSpace=wrap;html=1;" vertex="1" parent="dNxyNK7c78bLwvsdeMH5-20">
          <mxGeometry x="280" y="262.5" width="40" height="40" as="geometry" />
        </mxCell>
        <mxCell id="ynxtPpoTQ_Jm71Z0IVjG-68" style="edgeStyle=orthogonalEdgeStyle;rounded=0;orthogonalLoop=1;jettySize=auto;html=1;fontSize=14;" edge="1" parent="dNxyNK7c78bLwvsdeMH5-20" source="ynxtPpoTQ_Jm71Z0IVjG-66" target="ynxtPpoTQ_Jm71Z0IVjG-61">
          <mxGeometry relative="1" as="geometry" />
        </mxCell>
        <mxCell id="ynxtPpoTQ_Jm71Z0IVjG-66" value="系统修复" style="rounded=0;whiteSpace=wrap;html=1;fontFamily=Helvetica;fontSize=12;fontColor=#000000;align=center;" vertex="1" parent="dNxyNK7c78bLwvsdeMH5-20">
          <mxGeometry x="180" y="262.5" width="70" height="40" as="geometry" />
        </mxCell>
        <mxCell id="ynxtPpoTQ_Jm71Z0IVjG-71" value="问题描述" style="shape=note;whiteSpace=wrap;html=1;backgroundOutline=1;darkOpacity=0.05;fontSize=14;" vertex="1" parent="dNxyNK7c78bLwvsdeMH5-20">
          <mxGeometry x="90" y="60" width="60" height="20" as="geometry" />
        </mxCell>
        <mxCell id="ynxtPpoTQ_Jm71Z0IVjG-73" value="修复反馈" style="shape=note;whiteSpace=wrap;html=1;backgroundOutline=1;darkOpacity=0.05;fontSize=14;size=10;" vertex="1" parent="dNxyNK7c78bLwvsdeMH5-20">
          <mxGeometry x="220" y="302.5" width="60" height="20" as="geometry" />
        </mxCell>
        <mxCell id="ynxtPpoTQ_Jm71Z0IVjG-78" style="edgeStyle=orthogonalEdgeStyle;rounded=0;orthogonalLoop=1;jettySize=auto;html=1;entryX=0;entryY=0.5;entryDx=0;entryDy=0;fontSize=14;" edge="1" parent="dNxyNK7c78bLwvsdeMH5-20" target="ynxtPpoTQ_Jm71Z0IVjG-77">
          <mxGeometry relative="1" as="geometry">
            <mxPoint x="250" y="135" as="sourcePoint" />
          </mxGeometry>
        </mxCell>
        <mxCell id="ynxtPpoTQ_Jm71Z0IVjG-98" style="edgeStyle=none;rounded=0;orthogonalLoop=1;jettySize=auto;html=1;exitX=0.5;exitY=1;exitDx=0;exitDy=0;fontSize=14;" edge="1" parent="dNxyNK7c78bLwvsdeMH5-20" source="ynxtPpoTQ_Jm71Z0IVjG-93" target="ynxtPpoTQ_Jm71Z0IVjG-96">
          <mxGeometry relative="1" as="geometry" />
        </mxCell>
        <mxCell id="ynxtPpoTQ_Jm71Z0IVjG-93" value="数据问题" style="rounded=0;whiteSpace=wrap;html=1;fontFamily=Helvetica;fontSize=12;fontColor=#000000;align=center;" vertex="1" parent="dNxyNK7c78bLwvsdeMH5-20">
          <mxGeometry x="380" y="30" width="70" height="30" as="geometry" />
        </mxCell>
        <mxCell id="ynxtPpoTQ_Jm71Z0IVjG-94" value="" style="endArrow=none;dashed=1;html=1;dashPattern=1 3;strokeWidth=2;rounded=0;fontSize=14;" edge="1" parent="dNxyNK7c78bLwvsdeMH5-20">
          <mxGeometry width="50" height="50" relative="1" as="geometry">
            <mxPoint x="340" y="880" as="sourcePoint" />
            <mxPoint x="340" as="targetPoint" />
          </mxGeometry>
        </mxCell>
        <mxCell id="ynxtPpoTQ_Jm71Z0IVjG-99" style="edgeStyle=none;rounded=0;orthogonalLoop=1;jettySize=auto;html=1;fontSize=14;" edge="1" parent="dNxyNK7c78bLwvsdeMH5-20" source="ynxtPpoTQ_Jm71Z0IVjG-96" target="ynxtPpoTQ_Jm71Z0IVjG-85">
          <mxGeometry relative="1" as="geometry" />
        </mxCell>
        <mxCell id="ynxtPpoTQ_Jm71Z0IVjG-96" value="统计描述" style="rounded=0;whiteSpace=wrap;html=1;fontFamily=Helvetica;fontSize=12;fontColor=#000000;align=center;" vertex="1" parent="dNxyNK7c78bLwvsdeMH5-20">
          <mxGeometry x="380" y="110" width="70" height="30" as="geometry" />
        </mxCell>
        <mxCell id="ynxtPpoTQ_Jm71Z0IVjG-97" value="定期报告" style="shape=note;whiteSpace=wrap;html=1;backgroundOutline=1;darkOpacity=0.05;fontSize=14;" vertex="1" parent="dNxyNK7c78bLwvsdeMH5-20">
          <mxGeometry x="430" y="140" width="60" height="20" as="geometry" />
        </mxCell>
        <mxCell id="ynxtPpoTQ_Jm71Z0IVjG-102" style="edgeStyle=none;rounded=0;orthogonalLoop=1;jettySize=auto;html=1;entryX=0;entryY=0.5;entryDx=0;entryDy=0;fontSize=14;" edge="1" parent="dNxyNK7c78bLwvsdeMH5-20" source="ynxtPpoTQ_Jm71Z0IVjG-85" target="ynxtPpoTQ_Jm71Z0IVjG-101">
          <mxGeometry relative="1" as="geometry" />
        </mxCell>
        <mxCell id="ynxtPpoTQ_Jm71Z0IVjG-107" value="否" style="edgeLabel;html=1;align=center;verticalAlign=middle;resizable=0;points=[];fontSize=14;" vertex="1" connectable="0" parent="ynxtPpoTQ_Jm71Z0IVjG-102">
          <mxGeometry x="-0.2783" y="-1" relative="1" as="geometry">
            <mxPoint as="offset" />
          </mxGeometry>
        </mxCell>
        <mxCell id="ynxtPpoTQ_Jm71Z0IVjG-104" value="是" style="edgeStyle=none;rounded=0;orthogonalLoop=1;jettySize=auto;html=1;fontSize=14;" edge="1" parent="dNxyNK7c78bLwvsdeMH5-20" source="ynxtPpoTQ_Jm71Z0IVjG-85" target="ynxtPpoTQ_Jm71Z0IVjG-103">
          <mxGeometry relative="1" as="geometry" />
        </mxCell>
        <mxCell id="ynxtPpoTQ_Jm71Z0IVjG-85" value="是否异常" style="rhombus;whiteSpace=wrap;html=1;fontFamily=Helvetica;fontSize=12;fontColor=#000000;align=center;" vertex="1" parent="dNxyNK7c78bLwvsdeMH5-20">
          <mxGeometry x="375" y="195" width="80" height="45" as="geometry" />
        </mxCell>
        <mxCell id="ynxtPpoTQ_Jm71Z0IVjG-101" value="结束" style="ellipse;whiteSpace=wrap;html=1;" vertex="1" parent="dNxyNK7c78bLwvsdeMH5-20">
          <mxGeometry x="500" y="195" width="40" height="40" as="geometry" />
        </mxCell>
        <mxCell id="ynxtPpoTQ_Jm71Z0IVjG-106" value="否" style="edgeStyle=none;rounded=0;orthogonalLoop=1;jettySize=auto;html=1;entryX=0;entryY=0.5;entryDx=0;entryDy=0;fontSize=14;" edge="1" parent="dNxyNK7c78bLwvsdeMH5-20" source="ynxtPpoTQ_Jm71Z0IVjG-103" target="ynxtPpoTQ_Jm71Z0IVjG-105">
          <mxGeometry relative="1" as="geometry" />
        </mxCell>
        <mxCell id="ynxtPpoTQ_Jm71Z0IVjG-103" value="是否需要医学数据介入" style="rhombus;whiteSpace=wrap;html=1;fontFamily=Helvetica;fontSize=12;fontColor=#000000;align=center;" vertex="1" parent="dNxyNK7c78bLwvsdeMH5-20">
          <mxGeometry x="375" y="277.5" width="80" height="45" as="geometry" />
        </mxCell>
        <mxCell id="ynxtPpoTQ_Jm71Z0IVjG-109" style="edgeStyle=none;rounded=0;orthogonalLoop=1;jettySize=auto;html=1;entryX=0;entryY=0.5;entryDx=0;entryDy=0;fontSize=14;" edge="1" parent="dNxyNK7c78bLwvsdeMH5-20" source="ynxtPpoTQ_Jm71Z0IVjG-105" target="ynxtPpoTQ_Jm71Z0IVjG-108">
          <mxGeometry relative="1" as="geometry" />
        </mxCell>
        <mxCell id="ynxtPpoTQ_Jm71Z0IVjG-105" value="数据修复" style="rounded=0;whiteSpace=wrap;html=1;fontFamily=Helvetica;fontSize=12;fontColor=#000000;align=center;" vertex="1" parent="dNxyNK7c78bLwvsdeMH5-20">
          <mxGeometry x="500" y="277.5" width="70" height="40" as="geometry" />
        </mxCell>
        <mxCell id="ynxtPpoTQ_Jm71Z0IVjG-108" value="结束" style="ellipse;whiteSpace=wrap;html=1;" vertex="1" parent="dNxyNK7c78bLwvsdeMH5-20">
          <mxGeometry x="600" y="280" width="40" height="40" as="geometry" />
        </mxCell>
        <mxCell id="ynxtPpoTQ_Jm71Z0IVjG-149" value="" style="endArrow=none;dashed=1;html=1;dashPattern=1 3;strokeWidth=2;rounded=0;fontSize=14;" edge="1" parent="dNxyNK7c78bLwvsdeMH5-20">
          <mxGeometry width="50" height="50" relative="1" as="geometry">
            <mxPoint x="660" y="890" as="sourcePoint" />
            <mxPoint x="660" y="10" as="targetPoint" />
          </mxGeometry>
        </mxCell>
        <mxCell id="dNxyNK7c78bLwvsdeMH5-21" value="医学数据" style="swimlane;html=1;startSize=20;horizontal=0;" parent="dNxyNK7c78bLwvsdeMH5-19" vertex="1">
          <mxGeometry x="20" y="430" width="800" height="200" as="geometry">
            <mxRectangle x="20" y="120" width="620" height="20" as="alternateBounds" />
          </mxGeometry>
        </mxCell>
        <mxCell id="ynxtPpoTQ_Jm71Z0IVjG-143" value="DSL取数逻辑调查" style="rounded=0;whiteSpace=wrap;html=1;fontFamily=Helvetica;fontSize=12;fontColor=#000000;align=center;" vertex="1" parent="dNxyNK7c78bLwvsdeMH5-21">
          <mxGeometry x="380" y="65" width="70" height="30" as="geometry" />
        </mxCell>
        <mxCell id="ynxtPpoTQ_Jm71Z0IVjG-148" value="修复程序包" style="shape=note;whiteSpace=wrap;html=1;backgroundOutline=1;darkOpacity=0.05;fontSize=14;" vertex="1" parent="dNxyNK7c78bLwvsdeMH5-21">
          <mxGeometry x="420" y="95" width="80" height="20" as="geometry" />
        </mxCell>
        <mxCell id="dNxyNK7c78bLwvsdeMH5-22" value="AI" style="swimlane;html=1;startSize=20;horizontal=0;" parent="dNxyNK7c78bLwvsdeMH5-19" vertex="1">
          <mxGeometry x="20" y="630" width="800" height="250" as="geometry">
            <mxRectangle x="20" y="240" width="620" height="20" as="alternateBounds" />
          </mxGeometry>
        </mxCell>
        <mxCell id="ynxtPpoTQ_Jm71Z0IVjG-63" value="模型接口修复" style="rounded=0;whiteSpace=wrap;html=1;fontFamily=Helvetica;fontSize=12;fontColor=#000000;align=center;" vertex="1" parent="dNxyNK7c78bLwvsdeMH5-22">
          <mxGeometry x="50" y="30" width="70" height="30" as="geometry" />
        </mxCell>
        <mxCell id="ynxtPpoTQ_Jm71Z0IVjG-72" value="修复包" style="shape=note;whiteSpace=wrap;html=1;backgroundOutline=1;darkOpacity=0.05;fontSize=14;" vertex="1" parent="dNxyNK7c78bLwvsdeMH5-22">
          <mxGeometry x="90" y="60" width="60" height="20" as="geometry" />
        </mxCell>
        <mxCell id="ynxtPpoTQ_Jm71Z0IVjG-88" style="edgeStyle=orthogonalEdgeStyle;rounded=0;orthogonalLoop=1;jettySize=auto;html=1;fontSize=14;" edge="1" parent="dNxyNK7c78bLwvsdeMH5-19" source="ynxtPpoTQ_Jm71Z0IVjG-56" target="ynxtPpoTQ_Jm71Z0IVjG-63">
          <mxGeometry relative="1" as="geometry" />
        </mxCell>
        <mxCell id="ynxtPpoTQ_Jm71Z0IVjG-90" value="是" style="edgeLabel;html=1;align=center;verticalAlign=middle;resizable=0;points=[];fontSize=14;" vertex="1" connectable="0" parent="ynxtPpoTQ_Jm71Z0IVjG-88">
          <mxGeometry x="-0.5887" y="2" relative="1" as="geometry">
            <mxPoint y="1" as="offset" />
          </mxGeometry>
        </mxCell>
        <mxCell id="ynxtPpoTQ_Jm71Z0IVjG-92" style="edgeStyle=orthogonalEdgeStyle;rounded=0;orthogonalLoop=1;jettySize=auto;html=1;entryX=0.5;entryY=1;entryDx=0;entryDy=0;fontSize=14;" edge="1" parent="dNxyNK7c78bLwvsdeMH5-19" source="ynxtPpoTQ_Jm71Z0IVjG-63" target="ynxtPpoTQ_Jm71Z0IVjG-66">
          <mxGeometry relative="1" as="geometry" />
        </mxCell>
        <mxCell id="ynxtPpoTQ_Jm71Z0IVjG-144" style="edgeStyle=none;rounded=0;orthogonalLoop=1;jettySize=auto;html=1;fontSize=14;" edge="1" parent="dNxyNK7c78bLwvsdeMH5-19" source="ynxtPpoTQ_Jm71Z0IVjG-103" target="ynxtPpoTQ_Jm71Z0IVjG-143">
          <mxGeometry relative="1" as="geometry">
            <mxPoint x="430" y="420" as="targetPoint" />
          </mxGeometry>
        </mxCell>
        <mxCell id="ynxtPpoTQ_Jm71Z0IVjG-147" value="是" style="edgeLabel;html=1;align=center;verticalAlign=middle;resizable=0;points=[];fontSize=14;" vertex="1" connectable="0" parent="ynxtPpoTQ_Jm71Z0IVjG-144">
          <mxGeometry x="-0.5768" y="-1" relative="1" as="geometry">
            <mxPoint as="offset" />
          </mxGeometry>
        </mxCell>
        <mxCell id="ynxtPpoTQ_Jm71Z0IVjG-146" style="edgeStyle=orthogonalEdgeStyle;rounded=0;orthogonalLoop=1;jettySize=auto;html=1;entryX=0.5;entryY=1;entryDx=0;entryDy=0;fontSize=14;" edge="1" parent="dNxyNK7c78bLwvsdeMH5-19" source="ynxtPpoTQ_Jm71Z0IVjG-143" target="ynxtPpoTQ_Jm71Z0IVjG-105">
          <mxGeometry relative="1" as="geometry" />
        </mxCell>
        <mxCell id="ynxtPpoTQ_Jm71Z0IVjG-80" value="客户反馈" style="rounded=0;whiteSpace=wrap;html=1;fontFamily=Helvetica;fontSize=12;fontColor=#000000;align=center;" vertex="1" parent="1">
          <mxGeometry x="1350" y="457.5" width="70" height="30" as="geometry" />
        </mxCell>
        <mxCell id="ynxtPpoTQ_Jm71Z0IVjG-81" value="模型问题" style="rounded=0;whiteSpace=wrap;html=1;fontFamily=Helvetica;fontSize=12;fontColor=#000000;align=center;" vertex="1" parent="1">
          <mxGeometry x="1350" y="347.5" width="70" height="30" as="geometry" />
        </mxCell>
        <mxCell id="ynxtPpoTQ_Jm71Z0IVjG-82" value="数据问题" style="rounded=0;whiteSpace=wrap;html=1;fontFamily=Helvetica;fontSize=12;fontColor=#000000;align=center;" vertex="1" parent="1">
          <mxGeometry x="1350" y="257.5" width="70" height="30" as="geometry" />
        </mxCell>
        <mxCell id="ynxtPpoTQ_Jm71Z0IVjG-86" value="是否异常" style="rhombus;whiteSpace=wrap;html=1;fontFamily=Helvetica;fontSize=12;fontColor=#000000;align=center;" vertex="1" parent="1">
          <mxGeometry x="1600" y="317.5" width="80" height="45" as="geometry" />
        </mxCell>
      </root>
    </mxGraphModel>
  </diagram>
</mxfile>
